<svg xmlns="http://www.w3.org/2000/svg" width="860" height="640" viewBox="0 0 860 640" font-family="'JetBrains Mono','Cascadia Mono','Consolas',monospace">
  <defs>
    <marker id="arA" viewBox="0 0 10 10" refX="8.5" refY="5" markerWidth="6.5" markerHeight="6.5" orient="auto-start-reverse">
      <path d="M0,0 L10,5 L0,10 z" fill="#a87420"/>
    </marker>
  </defs>
  <rect width="860" height="640" fill="#0d0c0a"/>

  <!-- query strip -->
  <text x="40" y="58" font-size="12.5" fill="#e8a13a">query Q &#8212; made from "time"</text>
  <text x="40" y="78" font-size="10.5" fill="#9b9281">after RMSNorm and the query projection: "what am I looking for?"</text>
  <g>
    <rect x="470" y="44" width="18" height="18" fill="#e8a13a"/>
    <rect x="492" y="44" width="18" height="18" fill="#57431f"/>
    <rect x="514" y="44" width="18" height="18" fill="#a87420"/>
    <rect x="536" y="44" width="18" height="18" fill="#2a2115"/>
    <rect x="558" y="44" width="18" height="18" fill="#c88a2e"/>
    <rect x="580" y="44" width="18" height="18" fill="#6b4d1b"/>
    <rect x="602" y="44" width="18" height="18" fill="#d89434"/>
    <rect x="624" y="44" width="18" height="18" fill="#33291a"/>
  </g>
  <text x="470" y="96" font-size="11.5" fill="#c1baa9">score_p = Q &#183; K_p / &#8730;48</text>
  <text x="470" y="114" font-size="10" fill="#5b5547">&#8730;48 keeps scores in range as head size grows</text>

  <!-- column headers -->
  <text x="60" y="136" font-size="10.5" fill="#9b9281">positions so far</text>
  <text x="190" y="136" font-size="10.5" fill="#6aa9c4">keys K &#8212; "what do I hold?"</text>
  <text x="380" y="136" font-size="10.5" fill="#9b9281">Q&#183;K/&#8730;48</text>
  <text x="490" y="136" font-size="10.5" fill="#e8a13a">softmax &#8594; weight</text>
  <text x="640" y="136" font-size="10.5" fill="#9bc46a">values V &#8212; "what I hand over"</text>

  <!-- row p=0 : <s> -->
  <text x="48" y="178" text-anchor="end" font-size="10" fill="#5b5547">0</text>
  <rect x="60" y="159" width="84" height="30" rx="6" fill="#1c1a14" stroke="#2a2620"/>
  <text x="102" y="179" text-anchor="middle" font-size="12" fill="#5b5547">&#60;s&#62;</text>
  <g>
    <rect x="190" y="165" width="18" height="18" fill="#17323f"/>
    <rect x="210" y="165" width="18" height="18" fill="#2b5a70"/>
    <rect x="230" y="165" width="18" height="18" fill="#1d3f4f"/>
    <rect x="250" y="165" width="18" height="18" fill="#204553"/>
    <rect x="270" y="165" width="18" height="18" fill="#12242d"/>
    <rect x="290" y="165" width="18" height="18" fill="#35657c"/>
    <rect x="310" y="165" width="18" height="18" fill="#17323f"/>
    <rect x="330" y="165" width="18" height="18" fill="#274f61"/>
  </g>
  <text x="452" y="180" text-anchor="end" font-size="12" fill="#c1baa9">0.4</text>
  <rect x="490" y="167" width="5" height="14" fill="#e8a13a" opacity="0.45"/>
  <text x="503" y="180" font-size="11" fill="#c1baa9">0.03</text>
  <g>
    <rect x="640" y="165" width="18" height="18" fill="#22391a"/>
    <rect x="660" y="165" width="18" height="18" fill="#44652c"/>
    <rect x="680" y="165" width="18" height="18" fill="#2c4a1f"/>
    <rect x="700" y="165" width="18" height="18" fill="#5d8a3d"/>
    <rect x="720" y="165" width="18" height="18" fill="#1a2b14"/>
    <rect x="740" y="165" width="18" height="18" fill="#37581f"/>
    <rect x="760" y="165" width="18" height="18" fill="#7ba351"/>
    <rect x="780" y="165" width="18" height="18" fill="#22391a"/>
  </g>

  <!-- row p=1 : Once -->
  <text x="48" y="234" text-anchor="end" font-size="10" fill="#5b5547">1</text>
  <rect x="60" y="215" width="84" height="30" rx="6" fill="#1c1a14" stroke="#2a2620"/>
  <text x="102" y="235" text-anchor="middle" font-size="12" fill="#e8e2d2">Once</text>
  <g>
    <rect x="190" y="221" width="18" height="18" fill="#2b5a70"/>
    <rect x="210" y="221" width="18" height="18" fill="#12242d"/>
    <rect x="230" y="221" width="18" height="18" fill="#3f7d99"/>
    <rect x="250" y="221" width="18" height="18" fill="#17323f"/>
    <rect x="270" y="221" width="18" height="18" fill="#4b8dab"/>
    <rect x="290" y="221" width="18" height="18" fill="#204553"/>
    <rect x="310" y="221" width="18" height="18" fill="#2b5a70"/>
    <rect x="330" y="221" width="18" height="18" fill="#12242d"/>
  </g>
  <text x="452" y="236" text-anchor="end" font-size="12" fill="#c1baa9">2.2</text>
  <rect x="490" y="223" width="32" height="14" fill="#e8a13a" opacity="0.6"/>
  <text x="530" y="236" font-size="11" fill="#c1baa9">0.18</text>
  <g>
    <rect x="640" y="221" width="18" height="18" fill="#44652c"/>
    <rect x="660" y="221" width="18" height="18" fill="#1a2b14"/>
    <rect x="680" y="221" width="18" height="18" fill="#5d8a3d"/>
    <rect x="700" y="221" width="18" height="18" fill="#2c4a1f"/>
    <rect x="720" y="221" width="18" height="18" fill="#7ba351"/>
    <rect x="740" y="221" width="18" height="18" fill="#22391a"/>
    <rect x="760" y="221" width="18" height="18" fill="#37581f"/>
    <rect x="780" y="221" width="18" height="18" fill="#44652c"/>
  </g>

  <!-- row p=2 : upon -->
  <text x="48" y="290" text-anchor="end" font-size="10" fill="#5b5547">2</text>
  <rect x="60" y="271" width="84" height="30" rx="6" fill="#1c1a14" stroke="#2a2620"/>
  <text x="102" y="291" text-anchor="middle" font-size="12" fill="#e8e2d2">upon</text>
  <g>
    <rect x="190" y="277" width="18" height="18" fill="#1d3f4f"/>
    <rect x="210" y="277" width="18" height="18" fill="#35657c"/>
    <rect x="230" y="277" width="18" height="18" fill="#12242d"/>
    <rect x="250" y="277" width="18" height="18" fill="#2b5a70"/>
    <rect x="270" y="277" width="18" height="18" fill="#204553"/>
    <rect x="290" y="277" width="18" height="18" fill="#17323f"/>
    <rect x="310" y="277" width="18" height="18" fill="#3f7d99"/>
    <rect x="330" y="277" width="18" height="18" fill="#1d3f4f"/>
  </g>
  <text x="452" y="292" text-anchor="end" font-size="12" fill="#c1baa9">1.2</text>
  <rect x="490" y="279" width="13" height="14" fill="#e8a13a" opacity="0.5"/>
  <text x="511" y="292" font-size="11" fill="#c1baa9">0.07</text>
  <g>
    <rect x="640" y="277" width="18" height="18" fill="#2c4a1f"/>
    <rect x="660" y="277" width="18" height="18" fill="#5d8a3d"/>
    <rect x="680" y="277" width="18" height="18" fill="#22391a"/>
    <rect x="700" y="277" width="18" height="18" fill="#44652c"/>
    <rect x="720" y="277" width="18" height="18" fill="#37581f"/>
    <rect x="740" y="277" width="18" height="18" fill="#1a2b14"/>
    <rect x="760" y="277" width="18" height="18" fill="#5d8a3d"/>
    <rect x="780" y="277" width="18" height="18" fill="#2c4a1f"/>
  </g>

  <!-- row p=3 : a -->
  <text x="48" y="346" text-anchor="end" font-size="10" fill="#5b5547">3</text>
  <rect x="60" y="327" width="84" height="30" rx="6" fill="#1c1a14" stroke="#2a2620"/>
  <text x="102" y="347" text-anchor="middle" font-size="12" fill="#e8e2d2">a</text>
  <g>
    <rect x="190" y="333" width="18" height="18" fill="#204553"/>
    <rect x="210" y="333" width="18" height="18" fill="#17323f"/>
    <rect x="230" y="333" width="18" height="18" fill="#2b5a70"/>
    <rect x="250" y="333" width="18" height="18" fill="#4b8dab"/>
    <rect x="270" y="333" width="18" height="18" fill="#12242d"/>
    <rect x="290" y="333" width="18" height="18" fill="#1d3f4f"/>
    <rect x="310" y="333" width="18" height="18" fill="#35657c"/>
    <rect x="330" y="333" width="18" height="18" fill="#204553"/>
  </g>
  <text x="452" y="348" text-anchor="end" font-size="12" fill="#c1baa9">1.8</text>
  <rect x="490" y="335" width="22" height="14" fill="#e8a13a" opacity="0.55"/>
  <text x="520" y="348" font-size="11" fill="#c1baa9">0.12</text>
  <g>
    <rect x="640" y="333" width="18" height="18" fill="#37581f"/>
    <rect x="660" y="333" width="18" height="18" fill="#22391a"/>
    <rect x="680" y="333" width="18" height="18" fill="#7ba351"/>
    <rect x="700" y="333" width="18" height="18" fill="#1a2b14"/>
    <rect x="720" y="333" width="18" height="18" fill="#44652c"/>
    <rect x="740" y="333" width="18" height="18" fill="#5d8a3d"/>
    <rect x="760" y="333" width="18" height="18" fill="#2c4a1f"/>
    <rect x="780" y="333" width="18" height="18" fill="#37581f"/>
  </g>

  <!-- row p=4 : time -->
  <text x="48" y="402" text-anchor="end" font-size="10" fill="#5b5547">4</text>
  <rect x="60" y="383" width="84" height="30" rx="6" fill="#1c1a14" stroke="#2a2620"/>
  <text x="102" y="403" text-anchor="middle" font-size="12" fill="#e8e2d2">time</text>
  <g>
    <rect x="190" y="389" width="18" height="18" fill="#4b8dab"/>
    <rect x="210" y="389" width="18" height="18" fill="#2b5a70"/>
    <rect x="230" y="389" width="18" height="18" fill="#35657c"/>
    <rect x="250" y="389" width="18" height="18" fill="#12242d"/>
    <rect x="270" y="389" width="18" height="18" fill="#3f7d99"/>
    <rect x="290" y="389" width="18" height="18" fill="#2b5a70"/>
    <rect x="310" y="389" width="18" height="18" fill="#17323f"/>
    <rect x="330" y="389" width="18" height="18" fill="#4b8dab"/>
  </g>
  <text x="452" y="404" text-anchor="end" font-size="12" fill="#c1baa9">3.4</text>
  <rect x="490" y="391" width="108" height="14" fill="#e8a13a"/>
  <text x="606" y="404" font-size="11" fill="#c1baa9">0.60</text>
  <g>
    <rect x="640" y="389" width="18" height="18" fill="#7ba351"/>
    <rect x="660" y="389" width="18" height="18" fill="#37581f"/>
    <rect x="680" y="389" width="18" height="18" fill="#44652c"/>
    <rect x="700" y="389" width="18" height="18" fill="#5d8a3d"/>
    <rect x="720" y="389" width="18" height="18" fill="#22391a"/>
    <rect x="740" y="389" width="18" height="18" fill="#7ba351"/>
    <rect x="760" y="389" width="18" height="18" fill="#2c4a1f"/>
    <rect x="780" y="389" width="18" height="18" fill="#5d8a3d"/>
  </g>

  <text x="60" y="446" font-size="10.5" fill="#5b5547">rows stop at the current position &#8212; the future is simply not in the cache (causal mask)</text>

  <!-- weighted sum -->
  <line x1="719" y1="414" x2="719" y2="482" stroke="#a87420" stroke-width="1.3" marker-end="url(#arA)"/>
  <text x="735" y="452" font-size="11" fill="#c1baa9">&#931; weight &#183; V</text>
  <text x="60" y="502" font-size="12.5" fill="#e8a13a">attention output for "time"</text>
  <text x="60" y="522" font-size="10.5" fill="#9b9281">a weighted blend of cached values &#8212; mostly V(time) plus some V(Once)</text>
  <g>
    <rect x="640" y="490" width="18" height="18" fill="#c88a2e"/>
    <rect x="660" y="490" width="18" height="18" fill="#57431f"/>
    <rect x="680" y="490" width="18" height="18" fill="#a87420"/>
    <rect x="700" y="490" width="18" height="18" fill="#8a5f1e"/>
    <rect x="720" y="490" width="18" height="18" fill="#33291a"/>
    <rect x="740" y="490" width="18" height="18" fill="#d89434"/>
    <rect x="760" y="490" width="18" height="18" fill="#6b4d1b"/>
    <rect x="780" y="490" width="18" height="18" fill="#a87420"/>
  </g>

  <!-- footnotes -->
  <text x="60" y="576" font-size="10.5" fill="#9b9281">one of 6 heads; each has its own learned query/key/value projections and attends to different relationships.</text>
  <text x="60" y="594" font-size="10.5" fill="#9b9281">head outputs are concatenated (6 &#215; 48 = 288) and projected once more before rejoining x.</text>
  <text x="60" y="618" font-size="10" fill="#5b5547">numbers are illustrative</text>
</svg>
